<?xml version="1.0" encoding="utf-8"?>
<!-- Generator: Adobe Illustrator 15.0.2, SVG Export Plug-In . SVG Version: 6.00 Build 0)  -->
<!DOCTYPE svg PUBLIC "-//W3C//DTD SVG 1.1//EN" "http://www.w3.org/Graphics/SVG/1.1/DTD/svg11.dtd">
<svg version="1.1" id="Layer_1" xmlns="http://www.w3.org/2000/svg" xmlns:xlink="http://www.w3.org/1999/xlink" x="0px" y="0px"
	 width="1024px" height="1024px" viewBox="0 0 1024 1024" enable-background="new 0 0 1024 1024" xml:space="preserve">
<path d="M819.2,0H204.8C92.2,0,0,92.2,0,204.8v614.4C0,931.8,92.2,1024,204.8,1024h614.4c112.6,0,204.8-92.2,204.8-204.8V204.8
	C1024,92.2,931.8,0,819.2,0z M708.8,187c9.8-10.8,22.8-16,38.2-16c14.6,0,27.6,5.4,38,16c10.4,10.4,15.6,23,15.6,37.6
	c0,15.4-5.199,28.2-15.6,38.6c-10.4,10.2-23.4,14.8-38,14.8c-15.4,0-28.2-4.8-38.2-14.8c-10.399-10.4-15.2-23.2-15.2-38.6
	C693.4,210,698.4,197.4,708.8,187z M262.2,187c10.8-10.8,23.8-16,39.4-16c14.6,0,27.2,5.4,37,16c10,10.4,15.4,23,15.4,37.6
	c0,15.4-5.2,28.2-15.4,38.6c-9.8,10.2-22.399,14.8-37,14.8c-15.6,0-28.6-4.8-39.4-14.8c-10.6-10.4-15.6-23.2-15.6-38.6
	C246.4,210,251.6,197.4,262.2,187z M436.4,527.6l-5.2,1.4c-11.2,0-18.2-5-20.8-15.4c-0.801-3.399-3.801-13.6-8-29.399
	C397.6,468.2,392.6,451.6,387,434s-12.2-39.8-20.2-67.4H354L426.8,613h-69v187c0,7.4-2.2,13.4-7.8,17.8
	c-4.8,4.601-10.8,6.8-18.2,6.8c-7.8,0-13.399-2.199-18.2-6.8C309,813.4,307,807.4,307,800V612.8h-12.6V800c0,7.4-2.4,13.4-7,17.8
	c-4.6,4.601-10.4,6.8-17.8,6.8S256,822.4,251,817.8c-5.2-4.399-7.6-10.399-7.6-17.8V612.8h-69.8l73-246.4H234
	c-8,27.6-14.8,49.8-20,67.4c-4.8,17.601-10,34.2-14.6,50.2c-5.2,15.8-8.6,25.8-9,29.4c-3.2,10.399-10,15.399-20.8,15.399L164,527.4
	c-10.2-3.601-15-10.2-15-19.601c-0.2-2.399,0-4.399,1.2-6.6c0.8-1.8,2.8-8,5.2-18.4c2.8-10.399,6.6-23.399,11.2-38.399
	c4.6-15.4,9.4-32,14.6-49.601c5.2-17.8,10.2-35,16-51.6c3.6-12.8,11.2-24.2,23-34.2c11.8-10.4,24-15,37-15H343
	c13.2,0,26.2,4.8,37.8,15c11.2,10,19.2,21.6,23.8,34.2c4.801,16.6,9.801,33.8,14.601,51.6c5,17.8,10.2,34.4,14.399,49.601
	c4.4,15,8.4,28,11.2,38.399c2.8,10.4,4.601,16.601,5.601,18.4l1.399,5.6C451.8,518,446.6,524.6,436.4,527.6z M560.8,896h-53V128h53
	V896z M875.2,528.8c0,6.2-2.4,12-6.2,16.601c-4.2,4.6-9.8,6.6-17.2,6.6c-6.399,0-12.2-2-17.2-6.6C830.4,540.8,828.4,535,828.4,528.8
	V378.6H815.8v416c0,8-2.8,15.4-8.6,21c-6.4,6.4-13.4,9-21.2,9c-9.4,0-17.2-2.6-23.2-9c-5.8-5.8-9-13-9-21v-241h-13.6v241.2
	c0,8-2.8,15.4-9.2,21c-6,6.4-13.2,9-22.4,9c-8.399,0-15.6-2.6-21.8-9c-6.6-5.8-10.2-13-10.2-21v-416H664.4V529c0,6.2-2,12-6,16.6
	C653.8,550.2,648.2,552.2,641,552.2c-6.4,0-12-2-16.4-6.601c-4.8-4.6-7-10.399-7-16.6V360.8c0-18.2,7-34.4,20.601-48.4
	c13.6-13.4,29.6-20.4,48.6-20.4h119.4c19.399,0,35.399,7,48.8,20.4c13.6,14,20.2,30.4,20.2,48.4V528.8z"/>
</svg>
